inDegrees=no
num_controls=7
num_derivatives=13
num_iterations=112
num_multipliers=7
num_parameters=0
num_slacks=7
num_states=26
objective=3.931318
objective_accelerations=0.559197
objective_balance=0.051749
objective_effort=0.461361
objective_height=2.817082
objective_ligament=0.041930
solver_duration=1219.449234
status=Solve_Succeeded
success=true
DataType=double
version=3
OpenSimVersion=4.4-2022-07-23-0e9fedc
endheader
time	/jointset/ground_pelvis/pelvis_tilt/value	/jointset/ground_pelvis/pelvis_tx/value	/jointset/ground_pelvis/pelvis_ty/value	/jointset/hip_l/hip_flexion_l/value	/jointset/hip_l/hip_adduction_l/value	/jointset/hip_l/hip_rotation_l/value	/jointset/back/lumbar_extension/value	/jointset/patellofemoral_l/patellar_flexion_l/value	/jointset/knee_l/knee_flexion_l/value	/jointset/knee_l/knee_adduction_l/value	/jointset/knee_l/knee_rotation_l/value	/jointset/ankle_l/ankle_angle_l/value	/jointset/subtalar_l/subtalar_angle_l/value	/jointset/ground_pelvis/pelvis_tilt/speed	/jointset/ground_pelvis/pelvis_tx/speed	/jointset/ground_pelvis/pelvis_ty/speed	/jointset/hip_l/hip_flexion_l/speed	/jointset/hip_l/hip_adduction_l/speed	/jointset/hip_l/hip_rotation_l/speed	/jointset/back/lumbar_extension/speed	/jointset/patellofemoral_l/patellar_flexion_l/speed	/jointset/knee_l/knee_flexion_l/speed	/jointset/knee_l/knee_adduction_l/speed	/jointset/knee_l/knee_rotation_l/speed	/jointset/ankle_l/ankle_angle_l/speed	/jointset/subtalar_l/subtalar_angle_l/speed	/forceset/tau_hip_flexion_l	/forceset/tau_hip_adduction_l	/forceset/tau_hip_rotation_l	/forceset/tau_knee_flexion_l	/forceset/tau_ankle_angle_l	/forceset/tau_subtalar_angle_l	/forceset/tau_lumbar_extension	lambda_cid13_p0	lambda_cid13_p1	lambda_cid13_p2	lambda_cid13_p3	lambda_cid13_p4	lambda_cid13_p5	lambda_cid14_p0	/jointset/ground_pelvis/pelvis_tilt/accel	/jointset/ground_pelvis/pelvis_tx/accel	/jointset/ground_pelvis/pelvis_ty/accel	/jointset/hip_l/hip_flexion_l/accel	/jointset/hip_l/hip_adduction_l/accel	/jointset/hip_l/hip_rotation_l/accel	/jointset/back/lumbar_extension/accel	/jointset/patellofemoral_l/patellar_flexion_l/accel	/jointset/knee_l/knee_flexion_l/accel	/jointset/knee_l/knee_adduction_l/accel	/jointset/knee_l/knee_rotation_l/accel	/jointset/ankle_l/ankle_angle_l/accel	/jointset/subtalar_l/subtalar_angle_l/accel	gamma_cid13_p0	gamma_cid13_p1	gamma_cid13_p2	gamma_cid13_p3	gamma_cid13_p4	gamma_cid13_p5	gamma_cid14_p0
1.5	-0.3484973279137939	-0.03737387886056691	0.7109685410845462	1.362952516877005	-0.2499602577021401	-0.03402812050154932	-0.3597287030512086	1.063202270460705	1.063202270460086	0.0116559533064239	0.1745320299252195	0.2573557715303313	0.06886003435861195	0.3786107293138212	0.1143477265833248	0.7494144584125958	-2.540321929603183	-0.06379974136268853	-0.402035821899815	0.5413492823174524	-2.745998410953897	-2.745998410953921	-0.4637195932752117	-2.513231869704653e-05	-0.7305052964502614	-0.27455404392704	-0.2084157618013293	0.0007962901523487284	-0.00934558729286069	-0.2976924175551313	0.09424377221353429	0.02850063186894692	0.2061052563960476	-6.620369811414246	-10.27961119292501	0.1638290061752101	-7.635876047273107	-599.404819153678	-63.41814865534045	-5.521535343802057	1.145816508545139	0.8955304549154601	-0.6510650372246884	-1.861390542854647	-0.1317291482158149	-1.027898125762096	2.041775863844744	-1.803348943495344	-1.803348943495355	-0.311425381939585	-0.1004840134849843	-1.307536289757518	-0.1783639741480792	-7.097489239623832e-08	5.286541086222497e-06	2.73664227451847e-06	7.972544877964904e-07	3.012810890790231e-07	3.434544407002686e-06	1.911829620914193e-07
1.51	-0.3446544516434302	-0.03618571161962837	0.7184285059123235	1.337458770167037	-0.2506061391394551	-0.03810452595161453	-0.3542139453025971	1.035655144803412	1.03565514480297	0.007004297137416766	0.1745316839031521	0.2499860760858499	0.06610421140302525	0.3898880680133257	0.1232747898207197	0.7424084439551928	-2.558110767036239	-0.06534934229929709	-0.4132675250882239	0.5615559749082069	-2.7630481172428	-2.763048117242833	-0.4665907624970569	-3.157556847799639e-05	-0.7432911067031899	-0.2765266737296428	-0.2017945464611591	-0.0002463692855511926	-0.009056042896677869	-0.2928419424076765	0.09594747945475646	0.02837968345198192	0.200405746758351	-5.701011551002289	-10.63282020083533	0.4997209716997541	-7.955143590559443	-592.9011172983371	-63.49823859575748	-7.043110446244653	1.107248473971905	0.8897914930774693	-0.7507998110165652	-1.690107854737864	-0.1630417195607885	-1.173708788005073	2.003172082171873	-1.599058331682721	-1.59905833168389	-0.2710192774665943	0.05080950583537137	-1.242490735319926	-0.1951708723705248	3.439001421839157e-08	5.376547857548298e-06	1.931791926782862e-06	7.231745157334716e-07	3.641821246387273e-07	3.177048933381796e-06	2.872548869392418e-07
1.52	-0.3407010908014073	-0.03490857429933053	0.7258133245633231	1.311796639580499	-0.2512668098167709	-0.04229382890809091	-0.3484985094029815	1.007948866711221	1.007948866710936	0.002324717959150019	0.1745315802458741	0.2424928450703873	0.06333097047160167	0.4007076436455768	0.1321417424551867	0.7343852230570482	-2.573998704917565	-0.0667575893630012	-0.4246153231816223	0.5814849125181999	-2.777828897935498	-2.777828897935538	-0.469304195125286	2.334064414335681e-05	-0.755212410646495	-0.2780376390944125	-0.19517333112098	-0.001289028723455551	-0.008766498500620166	-0.2879914672602263	0.09765118669597529	0.02825873503500992	0.1947062371206637	-4.772748012871457	-11.00578148646624	0.8595397946214763	-8.365121046260899	-586.2717375258683	-63.64566896748864	-8.752999352798216	1.054263895094443	0.8835083343298856	-0.8545063253730397	-1.481210632508704	-0.1034583736349541	-1.051117106760027	1.986224867692452	-1.349563824254184	-1.349563824254186	-0.2798780632163848	-0.08821212100442172	-1.134635027832807	-0.08603108658148854	-2.310604131359368e-08	5.278601145320269e-06	2.36261706600028e-06	7.673619958346613e-07	2.766646679715561e-07	2.979392279000813e-06	2.533157646341029e-07
1.53	-0.3366419812179133	-0.03354317838736982	0.7331128278320689	1.285985655657974	-0.2519396363604784	-0.04659876833117368	-0.3425852472616424	0.9801066608104755	0.9801066608103518	-0.002378053615839468	0.1745319303829602	0.23488527571083	0.06054658218311081	0.4110296955534418	0.1409129208914346	0.7253537724861039	-2.587861896115597	-0.06777995323447174	-0.4363286936989868	0.6010939662886033	-2.79021495492337	-2.79021495492338	-0.4712864643001725	4.203610859796547e-05	-0.7661531617515159	-0.2787656378686508	-0.1884561918224596	-0.00168188524190969	-0.008627565120447871	-0.2832711264929643	0.09925490913202381	0.02748094964464601	0.1888681934916022	-3.931876982504776	-11.03733078033966	1.118276762395337	-8.558192008563884	-579.8296211438026	-63.12286929020504	-10.56022756522126	1.008480098904845	0.8704503688017322	-0.9517337708984119	-1.288466989584525	-0.09853792271875282	-1.224926939193196	1.937213212537477	-1.123525366141911	-1.123525366137361	-0.1620495063550182	0.04519677230706947	-1.051351358762252	-0.05638670429695414	-2.536418691263557e-07	4.980953856816297e-06	4.106347410105276e-06	9.372086438603215e-07	2.932756331333174e-08	2.845314370062228e-06	8.123990472894414e-08
1.54	-0.3324821902632856	-0.03209076513694056	0.7403171627255167	1.260046121098244	-0.2526220690486635	-0.05101953744242474	-0.3364781010664343	0.9521525145938297	0.9521525145938733	-0.007101577514920824	0.1745321247530999	0.2271727875988375	0.05775687342058717	0.4208439178721944	0.1495452101488947	0.7153515479974353	-2.599708832358989	-0.06867881825856686	-0.4477812608150925	0.6202617232919296	-2.80021696111477	-2.80021696111475	-0.4734546599442706	-7.812741483186055e-06	-0.7761961611335578	-0.2791017339009672	-0.1817390525239322	-0.002074741760366589	-0.008488631740206679	-0.2785507857257015	0.1008586315680702	0.02670316425427964	0.1830301498625481	-3.095685325961046	-11.07051174089427	1.380067701595156	-8.763372878549768	-573.455363884042	-62.6062127891835	-12.37673062994434	0.9526979772719377	0.8557304985723516	-1.048661108917915	-1.077959641580557	-0.0787586041598505	-0.9989564265081903	1.897965514276995	-0.8727536649597543	-0.8727536649597444	-0.3170633570587393	-0.1019209839116356	-0.9550846832370095	-0.00765053819706863	-3.983336692862121e-07	4.835312722136022e-06	5.233256422267142e-06	1.046038144114827e-06	-1.313112098570705e-07	2.684616632073062e-06	-2.167108910396432e-08
1.55	-0.3282269297781899	-0.03055277882977044	0.7474167467854269	1.233998325289151	-0.2533123474089676	-0.05555479540194014	-0.330181580975174	0.9241104153579561	0.9241104153579813	-0.01184608445326068	0.174531907041741	0.2193646668782724	0.05496643923132282	0.430109664628155	0.1580214957063918	0.7044161060553654	-2.609498701346003	-0.06932601649660455	-0.4592805030029183	0.6389588396173126	-2.807791578472102	-2.807791578472096	-0.4754039733552496	-2.139355526388053e-05	-0.7852580349712585	-0.2788849628330627	-0.1749058233085414	-0.002863925455661809	-0.008576284689192028	-0.2741547143852187	0.1026789530486249	0.02619053639033077	0.1771091115094213	-2.197204133787846	-11.24686225256137	1.684228175979874	-9.019486206608969	-567.3947858423917	-62.42750652873365	-14.1981245609869	0.8987211526941463	0.8392154414213602	-1.138404587605554	-0.8767863657211671	-0.05132234590701922	-1.227102251503041	1.843066390218758	-0.6381080744094862	-0.6381080744118074	-0.1265683517983658	0.0499239252975451	-0.8560382744798614	0.0498937103260689	-4.441182201938133e-07	4.864809112513474e-06	5.649479986755441e-06	1.084565278459094e-06	-1.920584271828136e-07	2.49324822148214e-06	-4.489212854928447e-08
1.56	-0.3238819701999465	-0.02893090209560862	0.7544024926557658	1.2078631736225	-0.2540078221341081	-0.06020538461064488	-0.3237005933809494	0.8960049114878519	0.8960049114878544	-0.01660862512945199	0.174531753633305	0.2114710675112425	0.05218088330894587	0.4387837365015496	0.1663232955472328	0.6925839100831526	-2.617180003871387	-0.06971809122590197	-0.4708475106540713	0.6571552238846839	-2.812897887961018	-2.812897887961028	-0.4770614075134607	5.047847307973769e-06	-0.7932918904266896	-0.2781260805234829	-0.1680725940931291	-0.003653109150926834	-0.008663937638254132	-0.2697586430447346	0.1044992745291857	0.0256779085264208	0.171188073156311	-1.304649381763194	-11.42066411435738	1.986249912422225	-9.276014907348348	-561.4094498333865	-62.23458418047242	-16.01890647453083	0.834363000758762	0.8208333552411602	-1.228011914946485	-0.6562463492542968	-0.02773390241176002	-1.012509519173577	1.797819102674696	-0.379092091276597	-0.3790920912766027	-0.2586875065051624	-0.09391654064115708	-0.7494810067830658	0.1007717101380365	-4.813801001971527e-07	4.867596724927046e-06	5.959203526235827e-06	1.113289363295275e-06	-2.517925780092909e-07	2.264496534460167e-06	-6.013193271001916e-08
1.57	-0.3194533234850305	-0.02722697737313278	0.7612655494541088	1.181661960639214	-0.2547057234554491	-0.0649717492218401	-0.3170403634518617	0.8678609371200954	0.8678609371200662	-0.02138634641110732	0.174532107637406	0.2035024337826259	0.04940584328561667	0.4468404401458418	0.1744209272391915	0.6798909784672937	-2.622694260508786	-0.06981470286783482	-0.482382572045801	0.674780304776029	-2.815467148914679	-2.815467148914687	-0.4784807526350023	6.304262022289271e-05	-0.80025684019323	-0.2767932903973632	-0.1611494178532172	-0.004410747252224349	-0.008981226504456315	-0.2655520107321708	0.1063885720212061	0.02516389313351187	0.1651762134913403	-0.4113722618283409	-11.59050486549127	2.283665996450532	-9.486595039102522	-555.708947568695	-62.05629308198162	-17.83249625399698	0.7755324053696497	0.7983476683548408	-1.310473237343367	-0.4438003329568206	0.005154378735009107	-1.217810167053739	1.728284008818587	-0.1313539110141848	-0.1313539110138978	-0.08229737070225798	0.05406733203532949	-0.6430900111610925	0.1613272208886194	-5.079886415701649e-07	4.836998364885769e-06	6.135802034456327e-06	1.129759636246349e-06	-3.102603957116859e-07	1.98901575189938e-06	-6.539519276502215e-08
1.58	-0.3149472680618488	-0.02544325241530089	0.767997569045806	1.15541664808716	-0.2554034350584438	-0.0698522255905346	-0.3102071964285694	0.8397041679800785	0.8397041679800231	-0.02617800901512661	0.1745327235582464	0.1954695329464294	0.0466464900749566	0.454265478154336	0.1822833426184404	0.6663764687539534	-2.625999917625143	-0.06968014755700074	-0.4936698621527728	0.6917426427255362	-2.815456842412471	-2.815456842412477	-0.4798496719854896	5.743122423682074e-05	-0.8061453119426331	-0.2749887179896567	-0.1542262416133061	-0.005168385353542528	-0.009298515370616352	-0.2613453784196069	0.1082778695132209	0.02464987774057628	0.1591643538263707	0.4738877101049781	-11.75553617638607	2.576418615890474	-9.682473727150505	-550.1112290499334	-61.85346048121114	-19.62884252859805	0.7080298735991878	0.7737900926991942	-1.392327534442744	-0.2145264450457661	0.01849948814174708	-0.9629552622217008	1.665270514307116	0.1368213998972352	0.1368213998972251	-0.2486023522942559	-0.1066377744217111	-0.5341854033556139	0.1951281664555537	-5.316116188030097e-07	4.756072134380713e-06	6.273208806342208e-06	1.132862220738284e-06	-3.599347679114501e-07	1.695498720641405e-06	-7.366395061245515e-08
1.59	-0.3103702653878749	-0.02358219135743532	0.7745904844300621	1.129149594836827	-0.2560981791681551	-0.07484439541526555	-0.3032079667494812	0.8115605671261218	0.8115605671260654	-0.03098244467473215	0.1745328517710886	0.1873832981082597	0.0439080601285714	0.4610161239275963	0.1898768153904303	0.6520845050171026	-2.627013484076249	-0.06920138322546904	-0.5047217247538744	0.7079670205829763	-2.812817893970014	-2.812817893970036	-0.4809880562029958	-4.291705242536788e-05	-0.8109130776202061	-0.2725910756495873	-0.1471756935229446	-0.005882344923093037	-0.009860281105725083	-0.2574381347656413	0.1103769165595016	0.02417331886660194	0.1530440693639111	1.402039861796777	-11.94036578743489	2.867789008365098	-9.867462373449932	-544.8856335719983	-61.727132282927	-21.39977787647561	0.6407209296479126	0.7445396068966136	-1.466030288713607	0.01477492045302849	0.07127373288154343	-1.170246819662841	1.580580545072288	0.3942654017941434	0.3942654017918586	-0.03807900831618629	0.03541459367615783	-0.4195834915630849	0.2765389490928429	-5.511827589884845e-07	4.60684379396053e-06	6.357426793202538e-06	1.117822942321389e-06	-3.976751783576445e-07	1.377503923294394e-06	-8.601159832104294e-08
